<?xml version="1.0" encoding="utf-8"?>
<!-- Generator: Adobe Illustrator 15.0.0, SVG Export Plug-In . SVG Version: 6.00 Build 0)  -->
<!DOCTYPE svg PUBLIC "-//W3C//DTD SVG 1.1//EN" "http://www.w3.org/Graphics/SVG/1.1/DTD/svg11.dtd">
<svg version="1.1" id="Layer_1" xmlns="http://www.w3.org/2000/svg" xmlns:xlink="http://www.w3.org/1999/xlink" x="0px" y="0px"
	 width="38px" height="38px" viewBox="0 0 38 38" enable-background="new 0 0 38 38" xml:space="preserve">
<g>
	<path fill-rule="evenodd" clip-rule="evenodd" fill="#0E7B90" d="M33.618,33.758H4.767c-2.246,0-4.074-1.828-4.074-4.073V12.296
		c0-2.196,1.75-3.99,3.931-4.066V6.875c0-1.085,0.883-1.966,1.966-1.966H12.9c1.083,0,1.966,0.881,1.966,1.966v1.348h18.753
		c2.247,0,4.074,1.829,4.073,4.074v17.388C37.692,31.93,35.866,33.758,33.618,33.758z M35.567,29.683V12.296
		c0-1.075-0.875-1.95-1.949-1.95H14.112c0,0-1.382,0.022-1.382-1.385s0.002-0.532,0.002-0.532l0.007-1.397h-1.398H8.133H6.749v1.128
		c0,0.004,0,0.074,0,0.269c0,0.123,0,0.293,0,0.532c0,1.408-1.386,1.385-1.386,1.385H4.767c-1.074,0-1.949,0.875-1.949,1.949v17.386
		c0,1.077,0.875,1.95,1.949,1.95h28.852C34.693,31.633,35.567,30.758,35.567,29.683L35.567,29.683z M19.193,28.781
		c-4.296,0-7.792-3.495-7.792-7.791c0-4.297,3.496-7.792,7.792-7.792c4.295,0,7.791,3.494,7.791,7.792
		C26.984,25.286,23.488,28.781,19.193,28.781z M19.193,15.325c-3.125,0-5.666,2.542-5.666,5.666c0,3.125,2.542,5.665,5.666,5.665
		c3.125,0,5.666-2.54,5.666-5.665C24.858,17.866,22.318,15.325,19.193,15.325z"/>
</g>
</svg>
