<?xml version="1.0" encoding="utf-8"?>
<!-- Generator: Adobe Illustrator 15.0.0, SVG Export Plug-In . SVG Version: 6.00 Build 0)  -->
<!DOCTYPE svg PUBLIC "-//W3C//DTD SVG 1.1//EN" "http://www.w3.org/Graphics/SVG/1.1/DTD/svg11.dtd">
<svg version="1.1" id="Layer_1" xmlns="http://www.w3.org/2000/svg" xmlns:xlink="http://www.w3.org/1999/xlink" x="0px" y="0px"
	 width="38px" height="38px" viewBox="0 0 38 38" enable-background="new 0 0 38 38" xml:space="preserve">
<path fill="#0E7B90" d="M20.165,11.58l-7.412-6.761c-0.803-0.727-1.404-0.437-1.404,0.647v4.005H2.34
	c-1.084,0-1.84,0.624-1.84,1.708v3.449c0,1.082,0.756,2.222,1.84,2.222h9.009v3.488c0,1.084,0.588,1.375,1.392,0.646l7.435-6.76
	C20.979,13.498,20.97,12.308,20.165,11.58z M35.677,21.303h-9.025v-3.64c0-1.084-0.579-1.375-1.382-0.648l-7.431,6.761
	c-0.804,0.727-0.784,1.917,0.02,2.646l7.4,6.761c0.806,0.728,1.393,0.435,1.393-0.649v-3.852h9.025c1.084,0,1.823-0.774,1.823-1.858
	v-3.449C37.5,22.289,36.761,21.303,35.677,21.303z"/>
</svg>
