<?xml version="1.0" encoding="utf-8"?>
<!-- Generator: Adobe Illustrator 15.0.0, SVG Export Plug-In . SVG Version: 6.00 Build 0)  -->
<!DOCTYPE svg PUBLIC "-//W3C//DTD SVG 1.1//EN" "http://www.w3.org/Graphics/SVG/1.1/DTD/svg11.dtd">
<svg version="1.1" id="Layer_1" xmlns="http://www.w3.org/2000/svg" xmlns:xlink="http://www.w3.org/1999/xlink" x="0px" y="0px"
	 width="38px" height="38px" viewBox="0 0 38 38" enable-background="new 0 0 38 38" xml:space="preserve">
<path fill="#898989" d="M25.877,33.984c-0.34,0-0.701-0.17-1.072-0.507l-7.223-6.597c-0.479-0.435-0.744-1.019-0.744-1.643
	c0-0.612,0.258-1.183,0.727-1.607l7.249-6.595c0.371-0.337,0.731-0.508,1.069-0.508c0.499,0,1.033,0.388,1.033,1.475v3.1h8.354
	c1.25,0,2.229,1.086,2.229,2.472v3.364c0,1.313-0.938,2.265-2.229,2.265h-8.354v3.307C26.916,33.598,26.379,33.984,25.877,33.984z
	 M25.889,17.431c-0.022,0-0.176,0.008-0.47,0.274L18.171,24.3c-0.278,0.251-0.431,0.585-0.431,0.938
	c0,0.366,0.159,0.713,0.449,0.975l7.221,6.597c0.223,0.201,0.391,0.272,0.467,0.272c0.008,0,0.011-0.001,0.011-0.001
	c0.023-0.014,0.126-0.162,0.126-0.571v-4.209h9.257c0.794,0,1.327-0.547,1.327-1.362v-3.364c0-0.771-0.496-1.569-1.327-1.569h-9.257
	v-4.002C26.014,17.593,25.915,17.447,25.889,17.431z M12.123,22.086L12.123,22.086c-0.502,0-1.038-0.387-1.038-1.474v-2.952H2.747
	c-1.344,0-2.247-1.355-2.247-2.62v-3.365c0-1.266,0.903-2.117,2.247-2.117h8.338V6.103c0-1.086,0.541-1.473,1.047-1.473
	c0.343,0,0.704,0.17,1.076,0.506l7.232,6.599c0.478,0.431,0.741,1.011,0.741,1.631c0,0.615-0.261,1.19-0.733,1.617l-7.252,6.595
	C12.824,21.915,12.463,22.086,12.123,22.086z M2.747,10.462c-0.404,0-1.345,0.118-1.345,1.214v3.365
	c0,0.812,0.553,1.717,1.345,1.717h9.24v3.854c0,0.412,0.1,0.556,0.127,0.571h0.009c0.075,0,0.243-0.071,0.466-0.273l7.254-6.596
	c0.281-0.254,0.436-0.591,0.436-0.948c0-0.362-0.157-0.704-0.444-0.963l-7.232-6.598c-0.223-0.201-0.392-0.272-0.47-0.272
	c-0.043,0-0.145,0.164-0.145,0.571v4.359H2.747z"/>
</svg>
