<?xml version="1.0" encoding="utf-8"?>
<!-- Generator: Adobe Illustrator 15.0.0, SVG Export Plug-In . SVG Version: 6.00 Build 0)  -->
<!DOCTYPE svg PUBLIC "-//W3C//DTD SVG 1.1//EN" "http://www.w3.org/Graphics/SVG/1.1/DTD/svg11.dtd">
<svg version="1.1" id="Layer_1" xmlns="http://www.w3.org/2000/svg" xmlns:xlink="http://www.w3.org/1999/xlink" x="0px" y="0px"
	 width="38px" height="38px" viewBox="0 0 38 38" enable-background="new 0 0 38 38" xml:space="preserve">
<g>
	<path fill="#0E7B90" d="M17.111,32.069V36h3.778v-3.931c5.779-0.829,10.351-5.4,11.181-11.181H36v-3.777h-3.93
		C31.24,11.331,26.669,6.76,20.89,5.929V2h-3.778v3.929C11.331,6.76,6.76,11.331,5.929,17.111H2v3.777h3.929
		C6.76,26.669,11.331,31.24,17.111,32.069z M19,9.556c5.213,0,9.444,4.23,9.444,9.444c0,5.213-4.231,9.443-9.444,9.443
		c-5.213,0-9.444-4.23-9.444-9.443C9.556,13.786,13.787,9.556,19,9.556z"/>
	<path fill="#0E7B90" d="M19,24.667c3.135,0,5.667-2.531,5.667-5.667S22.135,13.333,19,13.333c-3.135,0-5.667,2.531-5.667,5.667
		S15.865,24.667,19,24.667z"/>
</g>
</svg>
