<?xml version="1.0" encoding="utf-8"?>
<!-- Generator: Adobe Illustrator 15.0.0, SVG Export Plug-In . SVG Version: 6.00 Build 0)  -->
<!DOCTYPE svg PUBLIC "-//W3C//DTD SVG 1.1//EN" "http://www.w3.org/Graphics/SVG/1.1/DTD/svg11.dtd">
<svg version="1.1" id="Layer_1" xmlns="http://www.w3.org/2000/svg" xmlns:xlink="http://www.w3.org/1999/xlink" x="0px" y="0px"
	 width="38px" height="38px" viewBox="0 0 38 38" enable-background="new 0 0 38 38" xml:space="preserve">
<g>
	<path fill="#898989" d="M31.835,36H6.139V12.568l-1.386-0.013V8.933h5.499V5.046L13.854,2h10.289l3.603,3.046v3.886h5.501v3.627
		h-1.412V36z M7.01,35.129h23.953V11.688h1.411V9.805h-5.499V5.451l-3.052-2.58h-9.65l-3.049,2.58v4.354H5.625v1.887l1.385,0.013
		V35.129z"/>
	<path fill="#898989" d="M29.096,33.194H8.891V11.688h20.205V33.194z M9.763,32.322h18.459V12.56H9.763V32.322z"/>
	<rect x="13.499" y="7.428" fill="#898989" width="11" height="0.872"/>
	<rect x="23.557" y="14.768" fill="#898989" width="0.871" height="15.545"/>
	<rect x="18.483" y="14.768" fill="#898989" width="0.873" height="15.545"/>
	<rect x="13.411" y="14.768" fill="#898989" width="0.871" height="15.545"/>
</g>
</svg>
