<?xml version="1.0" encoding="utf-8"?>
<!-- Generator: Adobe Illustrator 15.0.0, SVG Export Plug-In . SVG Version: 6.00 Build 0)  -->
<!DOCTYPE svg PUBLIC "-//W3C//DTD SVG 1.1//EN" "http://www.w3.org/Graphics/SVG/1.1/DTD/svg11.dtd">
<svg version="1.1" id="Layer_1" xmlns="http://www.w3.org/2000/svg" xmlns:xlink="http://www.w3.org/1999/xlink" x="0px" y="0px"
	 width="38px" height="38px" viewBox="0 0 38 38" enable-background="new 0 0 38 38" xml:space="preserve">
<g>
	<path fill="#FFFFFF" d="M2.212,6.273l10.536,13.873v10.146c0,0.304,0.172,0.563,0.389,0.736l5.333,3.34
		c0.13,0.086,0.303,0.13,0.477,0.13c0.13,0,0.303-0.044,0.433-0.13c0.261-0.174,0.433-0.434,0.433-0.738V20.146L30.35,6.273
		l0.044-0.043c0.26-0.434,0.303-0.997,0.043-1.431c-0.261-0.434-0.737-0.737-1.214-0.737H3.339c-0.521,0-0.997,0.26-1.213,0.737
		C1.909,5.276,1.909,5.796,2.168,6.23C2.168,6.23,2.168,6.23,2.212,6.273z M28.485,5.796L18.253,19.367
		c-0.13,0.129-0.172,0.347-0.172,0.521v12.182l-3.599-2.254v-9.928c0-0.174-0.044-0.391-0.174-0.521L4.033,5.796H28.485z"/>
	<path fill="#FFFFFF" d="M25.474,34.679c-0.339,0-0.606-0.266-0.606-0.607V22.434l-1.718,1.719
		c-0.118,0.116-0.271,0.181-0.433,0.181c-0.165,0-0.32-0.069-0.428-0.189c-0.107-0.105-0.165-0.251-0.165-0.425
		c0-0.173,0.058-0.319,0.172-0.435l2.744-2.743c0.115-0.114,0.261-0.172,0.434-0.172c0.146,0,0.285,0.053,0.415,0.156l2.776,2.775
		c0.12,0.118,0.186,0.281,0.181,0.446c-0.003,0.161-0.071,0.308-0.188,0.414c-0.108,0.107-0.261,0.172-0.425,0.172
		c-0.163,0-0.319-0.069-0.427-0.189l-1.726-1.712v11.64C26.081,34.413,25.813,34.679,25.474,34.679z M32.596,34.663
		c-0.174,0-0.32-0.059-0.435-0.173l-2.758-2.743c-0.115-0.114-0.174-0.26-0.174-0.434c0-0.173,0.059-0.32,0.174-0.435
		c0.101-0.111,0.255-0.18,0.42-0.18c0.162,0,0.315,0.063,0.432,0.18l1.734,1.734V20.976c0-0.34,0.267-0.606,0.606-0.606
		c0.33,0,0.597,0.255,0.62,0.591l0.001,11.639l1.718-1.72c0.102-0.111,0.257-0.18,0.422-0.18c0.161,0,0.313,0.063,0.432,0.18
		c0.109,0.098,0.176,0.245,0.18,0.405c0.004,0.165-0.063,0.328-0.181,0.447l-2.759,2.759C32.881,34.61,32.741,34.663,32.596,34.663z
		"/>
</g>
</svg>
