<?xml version="1.0" encoding="utf-8"?>
<!-- Generator: Adobe Illustrator 15.0.0, SVG Export Plug-In . SVG Version: 6.00 Build 0)  -->
<!DOCTYPE svg PUBLIC "-//W3C//DTD SVG 1.1//EN" "http://www.w3.org/Graphics/SVG/1.1/DTD/svg11.dtd">
<svg version="1.1" id="Layer_1" xmlns="http://www.w3.org/2000/svg" xmlns:xlink="http://www.w3.org/1999/xlink" x="0px" y="0px"
	 width="38px" height="38px" viewBox="0 0 38 38" enable-background="new 0 0 38 38" xml:space="preserve">
<path fill="#898989" d="M29.883,36.828c-2.507,0-4.548-2.079-4.548-4.636s2.041-4.636,4.548-4.636c2.508,0,4.547,2.079,4.547,4.636
	S32.391,36.828,29.883,36.828z M29.883,28.505c-1.984,0-3.599,1.654-3.599,3.688s1.614,3.688,3.599,3.688s3.599-1.654,3.599-3.688
	S31.867,28.505,29.883,28.505z M13.635,36.828c-2.508,0-4.547-2.079-4.547-4.636s2.04-4.636,4.547-4.636s4.548,2.079,4.548,4.636
	S16.143,36.828,13.635,36.828z M13.635,28.505c-1.984,0-3.599,1.654-3.599,3.688s1.614,3.688,3.599,3.688s3.599-1.654,3.599-3.688
	S15.62,28.505,13.635,28.505z M10.444,27.266c-0.59-0.005-1.146-0.294-1.489-0.773c-0.323-0.553-0.366-1.188-0.142-1.738
	l1.882-4.318L5.719,4.776H0.5V1.172h6.539c0.784,0.015,1.46,0.521,1.692,1.262l1.088,3.386h25.862
	c0.578,0.011,1.111,0.267,1.472,0.704c0.344,0.51,0.431,1.092,0.267,1.635l-3.985,12.754c-0.256,0.75-0.95,1.253-1.73,1.263h-17.81
	l-0.764,2.436h22.418v0.948H11.839l1.358-4.332h18.5c0.375-0.005,0.713-0.249,0.835-0.608l3.98-12.739
	c0.08-0.266,0.038-0.556-0.119-0.789c-0.155-0.186-0.428-0.317-0.721-0.321H9.128L7.827,2.721c-0.111-0.354-0.431-0.593-0.797-0.6
	H1.449v1.706h4.964l5.294,16.66l-2.019,4.635c-0.11,0.27-0.088,0.594,0.064,0.857c0.142,0.194,0.413,0.334,0.701,0.337
	L10.444,27.266z"/>
</svg>
