<?xml version="1.0" encoding="utf-8"?>
<!-- Generator: Adobe Illustrator 15.0.0, SVG Export Plug-In . SVG Version: 6.00 Build 0)  -->
<!DOCTYPE svg PUBLIC "-//W3C//DTD SVG 1.1//EN" "http://www.w3.org/Graphics/SVG/1.1/DTD/svg11.dtd">
<svg version="1.1" id="Layer_1" xmlns="http://www.w3.org/2000/svg" xmlns:xlink="http://www.w3.org/1999/xlink" x="0px" y="0px"
	 width="38px" height="38px" viewBox="0 0 38 38" enable-background="new 0 0 38 38" xml:space="preserve">
<path fill="#0E7B90" d="M13.493,28.268c-2.309,0-4.18,1.914-4.18,4.271s1.871,4.271,4.18,4.271s4.181-1.914,4.181-4.271
	S15.802,28.268,13.493,28.268z M32.03,21.771c0.598-0.008,1.125-0.389,1.318-0.955l4.089-13.084c0.126-0.417,0.06-0.865-0.182-1.227
	c-0.282-0.34-0.696-0.538-1.137-0.546H9.223L7.995,2.143C7.82,1.585,7.309,1.201,6.724,1.19H0.5v2.725h5.225L10.995,20.5l-2,4.588
	c-0.175,0.43-0.141,0.916,0.091,1.318c0.263,0.367,0.685,0.586,1.137,0.59h25.761V24.27H12.313l1.09-2.498H32.03z M30.168,28.268
	c-2.308,0-4.18,1.914-4.18,4.271s1.872,4.271,4.18,4.271s4.18-1.914,4.18-4.271S32.476,28.268,30.168,28.268z"/>
</svg>
