<?xml version="1.0" encoding="utf-8"?>
<!-- Generator: Adobe Illustrator 15.0.0, SVG Export Plug-In . SVG Version: 6.00 Build 0)  -->
<!DOCTYPE svg PUBLIC "-//W3C//DTD SVG 1.1//EN" "http://www.w3.org/Graphics/SVG/1.1/DTD/svg11.dtd">
<svg version="1.1" id="Layer_1" xmlns="http://www.w3.org/2000/svg" xmlns:xlink="http://www.w3.org/1999/xlink" x="0px" y="0px"
	 width="38px" height="38px" viewBox="0 0 38 38" enable-background="new 0 0 38 38" xml:space="preserve">
<path fill="#FFFFFF" d="M13.94,27.516c-2.122,0-3.841,1.76-3.841,3.926s1.72,3.924,3.841,3.924c2.121,0,3.841-1.758,3.841-3.924
	S16.061,27.516,13.94,27.516z M30.974,21.547c0.549-0.008,1.034-0.357,1.211-0.877l3.758-12.024
	c0.115-0.382,0.055-0.795-0.167-1.127c-0.26-0.313-0.64-0.495-1.045-0.501H10.015L8.888,3.51C8.727,2.998,8.257,2.645,7.719,2.634H2
	v2.504h4.801l4.842,15.239l-1.837,4.217c-0.161,0.396-0.13,0.842,0.083,1.211c0.241,0.338,0.629,0.539,1.044,0.543h23.672v-2.506
	H12.855l1.001-2.295H30.974z M29.263,27.516c-2.121,0-3.841,1.76-3.841,3.926s1.72,3.924,3.841,3.924
	c2.12,0,3.841-1.758,3.841-3.924S31.383,27.516,29.263,27.516z"/>
</svg>
