<?xml version="1.0" encoding="utf-8"?>
<!-- Generator: Adobe Illustrator 15.0.0, SVG Export Plug-In . SVG Version: 6.00 Build 0)  -->
<!DOCTYPE svg PUBLIC "-//W3C//DTD SVG 1.1//EN" "http://www.w3.org/Graphics/SVG/1.1/DTD/svg11.dtd">
<svg version="1.1" id="Layer_1" xmlns="http://www.w3.org/2000/svg" xmlns:xlink="http://www.w3.org/1999/xlink" x="0px" y="0px"
	 width="38px" height="38px" viewBox="0 0 38 38" enable-background="new 0 0 38 38" xml:space="preserve">
<g>
	<path fill="#FFFFFF" d="M18.959,11.457c-1.875,0-3.401,1.527-3.401,3.403c0,1.875,1.525,3.4,3.401,3.4s3.4-1.526,3.4-3.4
		C22.359,12.983,20.835,11.457,18.959,11.457z"/>
	<path fill="#FFFFFF" d="M19,2C11.908,2,6.136,7.911,6.136,15.176c0,2.713,0.843,5.448,2.397,7.733l4.586,6.375l4.031,5.748
		C17.587,35.64,18.293,36,19.035,36c0.774,0,1.486-0.388,1.87-0.983l8.636-12.159c1.477-2.235,2.323-5.078,2.323-7.799
		C31.864,7.857,26.092,2,19,2z M18.959,21.394c-3.603,0-6.535-2.932-6.535-6.534c0-3.605,2.932-6.537,6.535-6.537
		c3.604,0,6.534,2.932,6.534,6.537C25.493,18.461,22.563,21.394,18.959,21.394z"/>
</g>
</svg>
