<?xml version="1.0" encoding="utf-8"?>
<!-- Generator: Adobe Illustrator 15.0.0, SVG Export Plug-In . SVG Version: 6.00 Build 0)  -->
<!DOCTYPE svg PUBLIC "-//W3C//DTD SVG 1.1//EN" "http://www.w3.org/Graphics/SVG/1.1/DTD/svg11.dtd">
<svg version="1.1" id="Layer_1" xmlns="http://www.w3.org/2000/svg" xmlns:xlink="http://www.w3.org/1999/xlink" x="0px" y="0px"
	 width="38px" height="38px" viewBox="0 0 38 38" enable-background="new 0 0 38 38" xml:space="preserve">
<path fill="#FFFFFF" d="M19,2C11.847,2,6.027,7.956,6.027,15.277c0,2.73,0.856,5.494,2.418,7.792l4.462,6.202l3.928,5.603
	C17.345,35.579,18.167,36,19.034,36c0.895,0,1.736-0.445,2.186-1.146l8.417-11.851c1.484-2.247,2.336-5.105,2.336-7.841
	C31.973,7.904,26.153,2,19,2z M28.898,22.497l-8.42,11.855c-0.298,0.465-0.851,0.753-1.444,0.753c-0.58,0-1.131-0.283-1.469-0.752
	l-3.928-5.602l-4.459-6.197c-1.456-2.14-2.257-4.725-2.257-7.278C6.922,8.449,12.34,2.895,19,2.895
	c6.66,0,12.078,5.503,12.078,12.268C31.078,17.727,30.28,20.405,28.898,22.497z M18.96,8.604c-3.508,0-6.362,2.854-6.362,6.365
	c0,3.507,2.854,6.362,6.362,6.362c3.509,0,6.362-2.854,6.362-6.362C25.322,11.458,22.47,8.604,18.96,8.604z M18.96,18.279
	c-1.826,0-3.312-1.485-3.312-3.311c0-1.827,1.485-3.313,3.312-3.313c1.827,0,3.311,1.486,3.311,3.313
	C22.271,16.794,20.787,18.279,18.96,18.279z"/>
</svg>
