<?xml version="1.0" encoding="utf-8"?>
<!-- Generator: Adobe Illustrator 15.0.0, SVG Export Plug-In . SVG Version: 6.00 Build 0)  -->
<!DOCTYPE svg PUBLIC "-//W3C//DTD SVG 1.1//EN" "http://www.w3.org/Graphics/SVG/1.1/DTD/svg11.dtd">
<svg version="1.1" id="Layer_1" xmlns="http://www.w3.org/2000/svg" xmlns:xlink="http://www.w3.org/1999/xlink" x="0px" y="0px"
	 width="38px" height="38px" viewBox="0 0 38 38" enable-background="new 0 0 38 38" xml:space="preserve">
<g>
	<path fill="#0E7B90" d="M19,2C12.135,2,6.557,7.878,6.557,14.788c0,2.702,0.857,5.367,2.315,7.512l5.065,7.036l4.423,6.313
		c0.34,0.469,1.025,0.469,1.328,0l4.42-6.267l5.064-7.082c1.414-2.146,2.271-4.939,2.271-7.642C31.444,7.792,25.862,2,19,2z
		 M18.957,19.91c-3.017,0-5.473-2.454-5.473-5.471c0-3.016,2.456-5.474,5.473-5.474c3.015,0,5.469,2.458,5.469,5.474
		C24.426,17.456,21.972,19.91,18.957,19.91z"/>
</g>
</svg>
