<?xml version="1.0" encoding="utf-8"?>
<!-- Generator: Adobe Illustrator 15.0.0, SVG Export Plug-In . SVG Version: 6.00 Build 0)  -->
<!DOCTYPE svg PUBLIC "-//W3C//DTD SVG 1.1//EN" "http://www.w3.org/Graphics/SVG/1.1/DTD/svg11.dtd">
<svg version="1.1" id="Layer_1" xmlns="http://www.w3.org/2000/svg" xmlns:xlink="http://www.w3.org/1999/xlink" x="0px" y="0px"
	 width="38px" height="38px" viewBox="0 0 38 38" enable-background="new 0 0 38 38" xml:space="preserve">
<path fill="#898989" d="M32.244,33.413l-4.975-8.544c0.665-0.578,1.289-1.216,1.839-1.932c2.115-2.762,3.027-6.179,2.572-9.626
	c-0.457-3.447-2.228-6.511-4.987-8.626C24.4,2.929,21.666,2,18.782,2c-4.087,0-7.855,1.858-10.34,5.1
	c-2.115,2.76-3.028,6.178-2.572,9.625s2.228,6.511,4.987,8.626c2.291,1.758,5.027,2.687,7.909,2.687
	c1.393,0,2.742-0.231,4.022-0.645L27.802,36L32.244,33.413z M13.456,21.961c-1.855-1.423-3.044-3.479-3.352-5.796
	c-0.306-2.316,0.308-4.612,1.729-6.468c1.669-2.177,4.202-3.426,6.949-3.426c1.935,0,3.772,0.624,5.313,1.805
	c1.855,1.421,3.044,3.479,3.351,5.796c0.307,2.315-0.307,4.611-1.729,6.466c-1.668,2.179-4.201,3.428-6.95,3.428
	C16.833,23.766,14.995,23.14,13.456,21.961z"/>
</svg>
