<?xml version="1.0" encoding="utf-8"?>
<!-- Generator: Adobe Illustrator 15.0.0, SVG Export Plug-In . SVG Version: 6.00 Build 0)  -->
<!DOCTYPE svg PUBLIC "-//W3C//DTD SVG 1.1//EN" "http://www.w3.org/Graphics/SVG/1.1/DTD/svg11.dtd">
<svg version="1.1" id="Layer_1" xmlns="http://www.w3.org/2000/svg" xmlns:xlink="http://www.w3.org/1999/xlink" x="0px" y="0px"
	 width="38px" height="38px" viewBox="0 0 38 38" enable-background="new 0 0 38 38" xml:space="preserve">
<path fill="#FFFFFF" d="M23.905,24.438h2.025v-0.64h-2.025V24.438z M10.835,31.753c-0.421,0.521-1.4,1.59-2.07,1.409
	c-0.137-0.061-2.206-1.087-4.004-4.215c-0.394-0.67,0.76-1.576,1.486-2.06L4.39,24.24c-0.859,0.576-2.459,1.927-2.221,3.095
	c0.124,0.607,1.394,6.012,7.618,8.439c0.186,0.071,0.381,0.108,0.581,0.108c1.324,0,2.587-1.551,3.002-2.113L10.835,31.753z
	 M19,17.649c2.275,0,4.124-1.884,4.124-4.123c0-0.392-0.071-0.783-0.143-1.174c-1.457-1.314-3.271-0.035-3.341,0.035
	c-0.747,0.533-1.529,0.711-2.239,0.711c-0.996,0-1.885-0.32-2.347-0.568c-0.106,0.32-0.142,0.675-0.142,0.996
	C14.912,15.836,16.725,17.649,19,17.649z M19,2C9.612,2,2,9.611,2,19c0,1.989,0.359,3.89,0.987,5.662
	c0.642-0.595,1.276-0.989,1.334-1.024l0.217-0.131l2.479,3.534l-0.243,0.151c-0.952,0.595-1.646,1.312-1.545,1.481
	c0.392,0.681,0.796,1.246,1.191,1.732c0.705,0.777,1.479,1.487,2.316,2.124c0.123,0.074,0.211,0.123,0.215,0.125
	c0.371-0.015,1.174-0.853,1.62-1.448l0.167-0.223l3.362,2.674l-0.135,0.208c-0.03,0.044-0.359,0.527-0.865,1.061
	C14.942,35.608,16.923,36,19,36c9.389,0,17-7.61,17-17C36,9.611,28.389,2,19,2z M19,8.123c3.021,0,5.475,2.417,5.475,5.438
	C24.475,16.583,22.021,19,19,19s-5.438-2.417-5.438-5.438C13.562,10.541,16.015,8.123,19,8.123z M19.818,23.692l-1.885,1.421
	l0.569-2.594l-0.747-0.925c-0.035-0.035-0.035-0.07-0.035-0.106l0.462-1.244c0-0.035,0.034-0.07,0.07-0.07h1.528
	c0.036,0,0.071,0.035,0.071,0.07l0.497,1.244c0.036,0.036,0.036,0.071,0,0.106l-0.782,0.96L19.818,23.692z M9.936,26.074l-0.071-1.6
	c0-2.382,1.956-4.337,4.337-4.337h0.213l2.346,9.527C14.13,29.237,11.749,27.958,9.936,26.074z M17.686,26.146l2.275-1.707
	l0.283,1.387l-2.985,2.31L17.686,26.146z M20.777,28.313l-1.599,1.706c-0.036,0.035-0.036,0.035-0.072,0.035
	c-0.034,0-0.034-0.035-0.07-0.035l-1.387-1.315l2.773-2.133l0.39,1.635C20.813,28.242,20.813,28.278,20.777,28.313z M27.815,25.932
	c-1.741,1.813-3.981,3.128-6.576,3.661l2.133-9.419h0.142c2.383,0,4.338,1.954,4.338,4.337L27.815,25.932z"/>
</svg>
