<?xml version="1.0" encoding="utf-8"?>
<!-- Generator: Adobe Illustrator 15.0.0, SVG Export Plug-In . SVG Version: 6.00 Build 0)  -->
<!DOCTYPE svg PUBLIC "-//W3C//DTD SVG 1.1//EN" "http://www.w3.org/Graphics/SVG/1.1/DTD/svg11.dtd">
<svg version="1.1" id="Layer_1" xmlns="http://www.w3.org/2000/svg" xmlns:xlink="http://www.w3.org/1999/xlink" x="0px" y="0px"
	 width="38px" height="38px" viewBox="0 0 38 38" enable-background="new 0 0 38 38" xml:space="preserve">
<path fill="#FFFFFF" d="M19.14,8.187c-2.944,0-5.363,2.383-5.363,5.363s2.383,5.363,5.363,5.363c2.979,0,5.398-2.383,5.398-5.363
	S22.119,8.187,19.14,8.187z M23.207,13.515c0,2.208-1.823,4.066-4.067,4.066s-4.031-1.788-4.031-4.066
	c0-0.315,0.036-0.666,0.14-0.981c0.456,0.245,1.333,0.561,2.314,0.561c0.701,0,1.472-0.176,2.208-0.702
	c0.07-0.069,1.857-1.331,3.295-0.035C23.137,12.743,23.207,13.129,23.207,13.515z M9.115,32.618c0,0-2.032-0.981-3.784-4.031
	c-0.351-0.597,1.612-1.823,1.612-1.823l-2.139-3.049c0,0-2.874,1.752-2.523,3.47c0.351,1.719,2.103,6.344,7.677,8.518
	c1.998,0.771,3.996-2.278,3.996-2.278l-2.91-2.313C11.043,31.11,9.782,32.793,9.115,32.618z M14.409,20.034
	c-2.348,0-4.277,1.928-4.277,4.276l0.07,1.577c1.788,1.858,4.135,3.12,6.73,3.541l-2.313-9.395H14.409z M19,1.982
	c-9.394,0-17,7.606-17,17c0,0.596,0.491,1.121,1.122,1.121s1.122-0.49,1.122-1.121c0-8.167,6.625-14.792,14.792-14.792
	c8.167,0,14.792,6.626,14.792,14.792c0,8.167-6.66,14.792-14.828,14.792c-0.596,0-1.121,0.49-1.121,1.122
	c0,0.596,0.489,1.121,1.121,1.121c9.394,0,17-7.642,17-17C36,9.66,28.394,1.982,19,1.982z M19.245,29.813
	c0.036,0,0.036,0,0.071-0.034l1.578-1.684c0.034-0.034,0.034-0.07,0.034-0.105l-0.385-1.612l-2.735,2.104l1.368,1.298
	C19.211,29.779,19.211,29.813,19.245,29.813z M20.472,21.365l-0.49-1.226c0-0.036-0.034-0.07-0.07-0.07h-1.507
	c-0.036,0-0.069,0.034-0.069,0.07l-0.456,1.226c0,0.036,0,0.07,0.035,0.106l0.736,0.911l-0.562,2.558l1.859-1.401L19.7,22.417
	l0.771-0.945C20.508,21.436,20.508,21.401,20.472,21.365z M21.348,29.357c2.56-0.525,4.769-1.822,6.485-3.609l0.036-1.402
	c0-2.349-1.929-4.276-4.277-4.276h-0.141L21.348,29.357z M23.978,23.645h1.997v0.631h-1.997V23.645z M20.087,24.275l-2.243,1.683
	l-0.42,1.962l2.944-2.277L20.087,24.275z"/>
</svg>
