<?xml version="1.0" encoding="utf-8"?>
<!-- Generator: Adobe Illustrator 15.0.0, SVG Export Plug-In . SVG Version: 6.00 Build 0)  -->
<!DOCTYPE svg PUBLIC "-//W3C//DTD SVG 1.1//EN" "http://www.w3.org/Graphics/SVG/1.1/DTD/svg11.dtd">
<svg version="1.1" id="Layer_1" xmlns="http://www.w3.org/2000/svg" xmlns:xlink="http://www.w3.org/1999/xlink" x="0px" y="0px"
	 width="38px" height="38px" viewBox="0 0 38 38" enable-background="new 0 0 38 38" xml:space="preserve">
<g>
	<path fill="#FFFFFF" d="M23.888,32.348c1.207,0,2.188-0.988,2.188-2.195c-0.019-1.202-0.977-2.16-2.188-2.183
		c-1.208,0-2.19,0.982-2.19,2.19C21.697,31.367,22.68,32.348,23.888,32.348z"/>
	<path fill="#FFFFFF" d="M10.523,27.97c-1.2,0.006-2.185,0.998-2.196,2.197c0.02,1.209,0.982,2.172,2.183,2.192h0.017
		c1.201-0.004,2.187-0.996,2.199-2.198C12.704,28.952,11.731,27.99,10.523,27.97z"/>
	<path fill="#FFFFFF" d="M29.284,20.221c-0.5,0-0.974-0.242-1.266-0.649l-1.98-2.825l-2.25-3.124
		c-0.811-1.194-1.254-2.625-1.254-4.041c0-3.797,3.019-6.886,6.732-6.886S36,5.758,36,9.524c0,1.415-0.44,2.895-1.209,4.059
		l-4.246,5.978C30.289,19.961,29.801,20.221,29.284,20.221z M29.267,3.537c-3.249,0-5.893,2.712-5.893,6.045
		c0,1.248,0.392,2.512,1.104,3.558l2.244,3.12l1.98,2.825c0.267,0.367,0.919,0.357,1.144,0.005l4.249-5.982
		c0.673-1.019,1.063-2.329,1.063-3.583C35.159,6.222,32.515,3.537,29.267,3.537z"/>
	<path fill="#FFFFFF" d="M29.246,6.218c-1.767,0-3.206,1.438-3.206,3.208c0,1.768,1.439,3.206,3.206,3.206
		c1.769,0,3.207-1.438,3.207-3.206C32.453,7.657,31.015,6.218,29.246,6.218z M29.246,11.094c-0.919,0-1.668-0.748-1.668-1.668
		s0.749-1.67,1.668-1.67c0.921,0,1.67,0.75,1.67,1.67S30.167,11.094,29.246,11.094z"/>
	<path fill="#FFFFFF" d="M23.88,35.306c-1.911-0.004-3.716-1.11-4.593-2.821l-0.133-0.26h-3.902l-0.132,0.266
		c-0.854,1.711-2.642,2.815-4.555,2.815c-1.934-0.012-3.75-1.12-4.625-2.825l-0.133-0.26H4.447C3.099,32.219,2,31.122,2,29.774
		v-7.102C2,21.979,2.197,21.305,2.57,20.718l4.659-7.336c0.47-0.748,1.28-1.194,2.167-1.194h4.536l0.087-0.368
		c0.264-1.112,1.246-1.889,2.388-1.889h3.588v0.843h-3.588c-0.885,0-1.607,0.719-1.612,1.603v0.655H9.4
		c-0.589,0-1.147,0.307-1.458,0.801L3.281,21.17c-0.286,0.45-0.438,0.969-0.438,1.503v7.1c0.001,0.885,0.722,1.604,1.606,1.605
		h1.942l0.103,0.273c0.627,1.672,2.248,2.803,4.034,2.812c1.806,0,3.426-1.127,4.033-2.804l0.1-0.277h5.076l0.102,0.271
		c0.631,1.678,2.257,2.806,4.049,2.81c1.806,0,3.427-1.127,4.033-2.804l0.102-0.277h2.242c0.885-0.002,1.605-0.723,1.605-1.609
		v-7.81h0.843v7.81c0,1.35-1.097,2.448-2.448,2.452h-1.651l-0.133,0.264c-0.855,1.711-2.643,2.817-4.554,2.817H23.88z"/>
	<path fill="#FFFFFF" d="M7.777,21.912c-0.291,0-0.527-0.235-0.527-0.525c0-0.291,0.236-0.528,0.527-0.528h4.047l0.869-4.056
		c0.053-0.241,0.27-0.417,0.517-0.417c0.037,0,0.073,0.004,0.109,0.012c0.285,0.061,0.466,0.342,0.405,0.626l-0.958,4.473
		c-0.053,0.241-0.269,0.415-0.516,0.415H7.777z"/>
</g>
</svg>
