<?xml version="1.0" encoding="utf-8"?>
<!-- Generator: Adobe Illustrator 15.0.0, SVG Export Plug-In . SVG Version: 6.00 Build 0)  -->
<!DOCTYPE svg PUBLIC "-//W3C//DTD SVG 1.1//EN" "http://www.w3.org/Graphics/SVG/1.1/DTD/svg11.dtd">
<svg version="1.1" id="Layer_1" xmlns="http://www.w3.org/2000/svg" xmlns:xlink="http://www.w3.org/1999/xlink" x="0px" y="0px"
	 width="38px" height="38px" viewBox="0 0 38 38" enable-background="new 0 0 38 38" xml:space="preserve">
<path fill="#FFFFFF" d="M26.485,21.543c-2.159-2.121-5.665-6.233-6.251-10.999h-4.107c-1.13,0-2.049,0.914-2.055,2.044v0.239H9.05
	c-0.745-0.002-1.438,0.377-1.834,1.006L2.51,21.246C2.178,21.768,2.002,22.372,2,22.99v7.172c0.003,1.13,0.918,2.046,2.048,2.047
	h1.668c0.699,1.867,2.479,3.105,4.472,3.114c2,0.019,3.795-1.229,4.476-3.108h4.534c0.704,1.868,2.489,3.105,4.487,3.108
	c2.001,0.019,3.793-1.229,4.474-3.108h1.968c1.132-0.003,2.048-0.921,2.048-2.053v-8.371C30.494,23.178,28.037,23.073,26.485,21.543
	z M10.188,32.351c-0.985-0.019-1.78-0.813-1.796-1.797c0.01-0.987,0.81-1.783,1.796-1.786c0.985,0.017,1.78,0.811,1.797,1.796
	C11.975,31.55,11.174,32.346,10.188,32.351z M13.014,21.529c0,0.219-0.178,0.395-0.396,0.395H6.263
	c-0.218-0.002-0.392-0.182-0.392-0.396c0.001-0.074,0.022-0.146,0.061-0.209l3.326-5.23c0.073-0.121,0.207-0.189,0.347-0.186h3.013
	c0.218,0,0.396,0.177,0.396,0.395V21.529z M23.685,32.339c-0.986,0-1.787-0.799-1.787-1.785c0-0.987,0.801-1.786,1.787-1.786
	c0.978,0.017,1.769,0.806,1.785,1.786C25.47,31.54,24.67,32.339,23.685,32.339z M30.5,19.566c1.838-1.808,5.5-5.963,5.5-10.361
	c0-3.605-2.923-6.528-6.529-6.528h-0.429c-3.456,0.253-6.123,3.141-6.102,6.605c0.042,4.376,3.677,8.488,5.506,10.285
	C29.015,20.125,29.93,20.125,30.5,19.566z M26.852,9.201c0-1.441,1.169-2.612,2.613-2.612c1.441,0,2.611,1.171,2.611,2.612
	c0.002,1.443-1.165,2.616-2.609,2.618h-0.002v-0.004C28.021,11.814,26.852,10.644,26.852,9.201z"/>
</svg>
