<?xml version="1.0" encoding="utf-8"?>
<!-- Generator: Adobe Illustrator 15.0.0, SVG Export Plug-In . SVG Version: 6.00 Build 0)  -->
<!DOCTYPE svg PUBLIC "-//W3C//DTD SVG 1.1//EN" "http://www.w3.org/Graphics/SVG/1.1/DTD/svg11.dtd">
<svg version="1.1" id="Layer_1" xmlns="http://www.w3.org/2000/svg" xmlns:xlink="http://www.w3.org/1999/xlink" x="0px" y="0px"
	 width="38px" height="38px" viewBox="0 0 38 38" enable-background="new 0 0 38 38" xml:space="preserve">
<g>
	<path fill="#898989" d="M19.043,34.262l-0.439-0.675c-0.033-0.052-3.364-5.11-9.331-8.189c-0.3-0.141-7.725-3.687-8.656-9.041
		C0.603,16.268-0.848,7.39,6.866,4.218c0.072-0.026,1.346-0.479,3.142-0.479c2.729,0,6.428,1.023,8.945,5.752
		c1.095-1.726,4.157-5.643,9.408-5.643c0.857,0,1.744,0.108,2.637,0.322c0.108,0.033,7.584,2.518,6.368,12.164
		c0.013,0.086,0.145,4.169-8.62,9c-0.083,0.042-6.811,3.493-9.324,8.217L19.043,34.262z M10.008,4.688
		c-1.62,0-2.79,0.411-2.802,0.416c-6.997,2.878-5.668,11.009-5.654,11.09c0.848,4.873,8.068,8.319,8.141,8.354
		c5.014,2.587,8.165,6.406,9.269,7.899c2.868-4.635,9.064-7.813,9.339-7.951c8.138-4.485,8.121-8.163,8.12-8.199
		c1.121-8.951-5.609-11.191-5.677-11.213c-0.788-0.187-1.601-0.286-2.384-0.286c-5.994,0-8.986,5.848-9.016,5.906l-0.44,0.883
		l-0.415-0.895C16.19,5.729,12.608,4.688,10.008,4.688z"/>
</g>
</svg>
